<svg width="19" height="20" viewBox="0 0 19 20" fill="none" xmlns="http://www.w3.org/2000/svg">
<path d="M2.37499 2.875L5.21641 5.71642M16.625 17.125L13.7839 14.2839M10.9843 15.4028C10.5036 15.494 10.0075 15.5417 9.50035 15.5417C5.95554 15.5417 2.95489 13.2119 1.94611 9.99997C2.22073 9.1256 2.64298 8.31661 3.18362 7.60219M7.82061 8.32062C8.2504 7.89083 8.84415 7.625 9.49999 7.625C10.8117 7.625 11.875 8.68832 11.875 10C11.875 10.6558 11.6092 11.2496 11.1794 11.6794M7.82061 8.32062L11.1794 11.6794M7.82061 8.32062L5.21641 5.71642M11.1794 11.6794L5.21641 5.71642M11.1794 11.6794L13.7839 14.2839M5.21641 5.71642C6.45127 4.9203 7.92185 4.45833 9.50034 4.45833C13.0451 4.45833 16.0458 6.78814 17.0546 10C16.4949 11.7818 15.3223 13.2922 13.7839 14.2839" stroke="#040308" stroke-opacity="0.4" stroke-width="2" stroke-linecap="round" stroke-linejoin="round"/>
</svg>
